<svg width="48" height="48" viewBox="0 0 48 48" fill="none" xmlns="http://www.w3.org/2000/svg">
<rect width="25.6896" height="25.6896" rx="4" transform="matrix(0.642274 -0.766475 0.642274 0.766475 0 19.6904)" fill="url(#paint0_linear_1_502)"/>
<rect width="25.6896" height="25.6896" rx="4" transform="matrix(0.642274 -0.766475 0.642274 0.766475 7.22314 19.6904)" fill="url(#paint1_linear_1_502)"/>
<rect width="25.6896" height="25.6896" rx="4" transform="matrix(0.642274 -0.766475 0.642274 0.766475 15 19.6904)" fill="url(#paint2_linear_1_502)"/>
<rect width="25.6896" height="25.6896" rx="4" transform="matrix(-0.642274 0.766475 -0.642274 -0.766475 48 28.3095)" fill="url(#paint3_linear_1_502)"/>
<rect width="25.6896" height="25.6896" rx="4" transform="matrix(-0.642274 0.766475 -0.642274 -0.766475 40.7769 28.3095)" fill="url(#paint4_linear_1_502)"/>
<rect width="25.6896" height="25.6896" rx="4" transform="matrix(-0.642274 0.766475 -0.642274 -0.766475 33 28.3095)" fill="url(#paint5_linear_1_502)"/>
<defs>
<linearGradient id="paint0_linear_1_502" x1="0.302099" y1="0.562913" x2="18.6836" y2="19.8095" gradientUnits="userSpaceOnUse">
<stop stop-color="#4EFFED"/>
<stop offset="1" stop-color="#737373" stop-opacity="0"/>
</linearGradient>
<linearGradient id="paint1_linear_1_502" x1="1.59962" y1="1.86043" x2="18.8999" y2="19.1607" gradientUnits="userSpaceOnUse">
<stop stop-color="#4EF3FF"/>
<stop offset="1" stop-color="#5C5C5C" stop-opacity="0"/>
</linearGradient>
<linearGradient id="paint2_linear_1_502" x1="0.95086" y1="2.07669" x2="23.8737" y2="24.9995" gradientUnits="userSpaceOnUse">
<stop stop-color="#4FBBDC"/>
<stop offset="1" stop-color="#4F4F4F" stop-opacity="0"/>
</linearGradient>
<linearGradient id="paint3_linear_1_502" x1="0.302099" y1="0.562913" x2="18.6836" y2="19.8095" gradientUnits="userSpaceOnUse">
<stop stop-color="#4EFFED"/>
<stop offset="1" stop-color="#737373" stop-opacity="0"/>
</linearGradient>
<linearGradient id="paint4_linear_1_502" x1="1.59962" y1="1.86043" x2="18.8999" y2="19.1607" gradientUnits="userSpaceOnUse">
<stop stop-color="#4EF3FF"/>
<stop offset="1" stop-color="#5C5C5C" stop-opacity="0"/>
</linearGradient>
<linearGradient id="paint5_linear_1_502" x1="0.95086" y1="2.07669" x2="23.8737" y2="24.9995" gradientUnits="userSpaceOnUse">
<stop stop-color="#4FBBDC"/>
<stop offset="1" stop-color="#4F4F4F" stop-opacity="0"/>
</linearGradient>
</defs>
</svg>
