<svg width="32" height="32" viewBox="0 0 32 32" fill="none" xmlns="http://www.w3.org/2000/svg">
<path d="M18.6667 2.66667H8.00004C7.2928 2.66667 6.61452 2.94762 6.11442 3.44772C5.61433 3.94782 5.33337 4.62609 5.33337 5.33334V26.6667C5.33337 27.3739 5.61433 28.0522 6.11442 28.5523C6.61452 29.0524 7.2928 29.3333 8.00004 29.3333H24C24.7073 29.3333 25.3856 29.0524 25.8857 28.5523C26.3858 28.0522 26.6667 27.3739 26.6667 26.6667V10.6667M18.6667 2.66667L26.6667 10.6667M18.6667 2.66667L18.6667 10.6667H26.6667M21.3334 17.3333H10.6667M21.3334 22.6667H10.6667M13.3334 12H10.6667" stroke="#D0E4F2" stroke-linecap="round" stroke-linejoin="round"/>
</svg>
